<svg
  xmlns="http://www.w3.org/2000/svg"
  xmlnsVectornator="http://vectornator.io"
  strokeLinecap="round"
  strokeLinejoin="round"
  strokeMiterlimit="10"
  clipRule="evenodd"
  viewBox="0 0 512 512"
>
      <g strokeWidth="12" vectornatorLayerName="Layer 2">
        <path
      d="M209.031 89.888c0-34.481-21.029-62.434-46.97-62.434-25.94 0-46.969 27.953-46.969 62.434V290.56h93.939V93.315"
    />
        <path
      d="M162.061 152.321c0-34.481-21.029-62.433-46.969-62.433s-46.97 27.952-46.97 62.433v200.672h93.939V155.748M302.969 89.888c0-34.481-21.029-62.434-46.969-62.434s-46.969 27.953-46.969 62.434V290.56h93.938V93.315"
    />
        <path
      d="M162.061 159.007c0 34.481-21.029 62.433-46.969 62.433s-46.97-27.952-46.97-62.433M256 152.321c0-34.481-21.029-62.433-46.969-62.433-25.941 0-46.97 27.952-46.97 62.433v200.672H256V155.748M396.908 89.888c0-34.481-21.029-62.434-46.969-62.434-25.941 0-46.97 27.953-46.97 62.434V290.56h93.939V93.315"
    />
        <path
      d="M349.939 152.321c0-34.481-21.029-62.433-46.97-62.433-25.94 0-46.969 27.952-46.969 62.433v200.672h93.939V155.748M209.031 221.44c0-34.481-21.029-62.433-46.97-62.433-25.94 0-46.969 27.952-46.969 62.433v200.672h93.939V224.867"
    />
        <path
      d="M443.878 152.321c0-34.481-21.029-62.433-46.97-62.433-25.94 0-46.969 27.952-46.969 62.433v200.672h93.939V155.748M209.031 221.44c0 34.481-21.029 62.434-46.97 62.434-25.94 0-46.969-27.953-46.969-62.434"
    />
        <path
      d="M443.878 159.007c0 34.481-21.029 62.433-46.97 62.433-25.94 0-46.969-27.952-46.969-62.433M302.969 221.44c0-34.481-21.029-62.433-46.969-62.433s-46.969 27.952-46.969 62.433v200.672h93.938V224.867"
    />
        <path
      d="M256 283.874c0-34.481-21.029-62.434-46.969-62.434-25.941 0-46.97 27.953-46.97 62.434v200.672H256V287.301M396.908 221.44c0-34.481-21.029-62.433-46.969-62.433-25.941 0-46.97 27.952-46.97 62.433v200.672h93.939V224.867"
    />
        <path
      d="M396.908 221.44c0 34.481-21.029 62.434-46.969 62.434-25.941 0-46.97-27.953-46.97-62.434M256 283.874c0 34.48-21.029 62.433-46.969 62.433-25.941 0-46.97-27.953-46.97-62.433"
    />
        <path
      d="M349.939 283.874c0-34.481-21.029-62.434-46.97-62.434-25.94 0-46.969 27.953-46.969 62.434v200.672h93.939V287.301"
    />
        <path
      d="M349.939 290.56c0 34.481-21.029 62.433-46.97 62.433-25.94 0-46.969-27.952-46.969-62.433"
    />
      </g>
    </svg>
