<svg xmlns="http://www.w3.org/2000/svg" viewBox="0 0 512 512">
      <g transform="matrix(.32404 0 0 -.32404 -60.658 582.647)">
        <path
      d="M455 1641c-137-146-183-226-218-380l-14-60 26-10c41-17 150-39 224-47 37-4 67-9 67-13 0-3-10-29-22-58l-21-52 65-73c61-68 66-77 72-133l6-60-71-45c-69-44-71-46-66-80 8-59 46-145 82-187 33-39 36-40 84-35 55 5 54 5 67-81 5-40 10-48 33-55 44-12 278-9 292 5 6 6 13 40 14 75s6 63 11 63 30-6 57-14c43-13 49-12 68 5 11 10 45 68 75 128 64 127 69 112-58 177-43 22-78 44-78 49 0 6 6 26 14 44 10 24 34 45 87 78 54 32 74 50 72 64-1 10-7 56-14 102-10 67-10 85 0 91 7 5 58 11 113 15 98 6 172 20 271 52 41 14 47 19 47 43 0 69-88 262-164 359-25 31-65 74-89 94l-44 37 14-42c26-75 43-170 43-248v-76l-37-12c-47-15-203-27-203-15 0 4 11 19 24 33 18 19 30 54 46 134 13 59 21 109 19 112-3 2-57-23-121-56l-117-59-17-55c-10-30-22-55-28-55s-35 11-64 25l-54 25-42-25c-24-14-46-25-49-25s-13 26-22 58c-17 61-10 54-176 165l-26 17-13-112-13-111 36-34c21-18 37-37 37-42 0-27-195-16-236 14-16 11-17 18-5 71 18 79 36 133 77 228 19 43 33 80 32 81-2 1-43-41-93-94z"
    />
      </g>
</svg>
